<?xml version="1.0" encoding="UTF-8"?>
<svg width="208px" height="208px" viewBox="0 0 208 208" version="1.1" xmlns="http://www.w3.org/2000/svg" xmlns:xlink="http://www.w3.org/1999/xlink">
    <!-- Generator: Sketch 48.2 (47327) - http://www.bohemiancoding.com/sketch -->
    <title>Post Like Plugin Logo</title>
    <defs></defs>
    <g id="Artboard-2" stroke="none" stroke-width="1" fill="none" fill-rule="evenodd" transform="translate(-24.000000, -24.000000)">
        <g id="pl-logo" transform="translate(24.000000, 24.000000)" fill-rule="nonzero">
            <path d="M73,169 L68.505,164.827793 C52.54,150.06703 42,140.33188 42,128.384196 C42,118.649046 49.502,111 59.05,111 C64.444,111 69.621,113.560218 73,117.605995 C76.379,113.560218 81.556,111 86.95,111 C96.498,111 104,118.649046 104,128.384196 C104,140.33188 93.46,150.06703 77.495,164.859401 L73,169 Z" id="Shape" fill="#CF1D1D"></path>
            <path d="M203.478261,0 L58.7826087,0 C56.2866087,0 54.2608696,2.02573913 54.2608696,4.52173913 L54.2608696,54.2608696 L4.52173913,54.2608696 C2.02573913,54.2608696 0,56.2866087 0,58.7826087 L0,194.434783 C0,201.913739 6.08626087,208 13.5652174,208 L122.086957,208 C123.285217,208 124.438261,207.525217 125.283826,206.67513 L152.414261,179.544696 C153.264348,178.69913 153.73913,177.550609 153.73913,176.347826 L153.73913,153.73913 L194.434783,153.73913 C201.913739,153.73913 208,147.65287 208,140.173913 L208,4.52173913 C208,2.02573913 205.974261,0 203.478261,0 Z M198,8 L198,26 L63,26 L63,8 L198,8 Z M143,63 L143,81 L8,81 L8,63 L143,63 Z M8,195.458333 L8,91 L143,91 L143,163.666667 L111.5,163.666667 C109.016,163.666667 107,165.696792 107,168.208333 L107,200 L12.5,200 C10.0205,200 8,197.965333 8,195.458333 Z M119.637,199 L117,199 L117,172 L144,172 L144,174.637 L119.637,199 Z M193.5,145 L153,145 L153,58.7083333 C153,56.2013333 150.984,54.1666667 148.5,54.1666667 L63,54.1666667 L63,36 L198,36 L198,140.458333 C198,142.965333 195.9795,145 193.5,145 Z" id="Shape" fill="#4A90E2"></path>
        </g>
    </g>
</svg>