<svg style="position: absolute; width: ; height: 0; overflow: hidden;" version="1.1" xmlns="http://www.w3.org/2000/svg" xmlns:xlink="http://www.w3.org/1999/xlink">
    <defs>
        <!--heart-->
        <symbol id="pl-icon-heart" width="24" height="24" viewBox="0 0 24 24">
            <path d="M12 21.35l-1.45-1.32C5.4 15.36 2 12.28 2 8.5 2 5.42 4.42 3 7.5 3c1.74 0 3.41.81 4.5 2.09C13.09 3.81 14.76 3 16.5 3 19.58 3 22 5.42 22 8.5c0 3.78-3.4 6.86-8.55 11.54L12 21.35z"/>
        </symbol>
        <!--thumb-->
        <symbol id="pl-icon-thumb-up" width="24" height="24" viewBox="0 0 24 24">
            <path d="M1,21h4V9H1V21z M23,10c0-1.1-0.9-2-2-2h-6.31l0.95-4.57l0.03-0.32c0-0.41-0.17-0.79-0.44-1.06L14.17,1L7.59,7.59
        C7.22,7.95,7,8.45,7,9v10c0,1.1,0.9,2,2,2h9c0.83,0,1.54-0.5,1.84-1.22l3.02-7.05C22.95,12.5,23,12.26,23,12V10z"/>
        </symbol>
        <!--star-->
        <symbol id="pl-icon-star" width="24" height="24" viewBox="0 0 24 24">
            <path d="M0 0h24v24H0z" fill="none"/>
            <path d="M12 17.27L18.18 21l-1.64-7.03L22 9.24l-7.19-.61L12 2 9.19 8.63 2 9.24l5.46 4.73L5.82 21z"/>
            <path d="M0 0h24v24H0z" fill="none"/>
        </symbol>
    </defs>
</svg>